<?xml version="1.0" encoding="utf-8"?>
<!-- Generator: Adobe Illustrator 18.1.1, SVG Export Plug-In . SVG Version: 6.00 Build 0)  -->
<svg version="1.1" id="Layer_1" xmlns="http://www.w3.org/2000/svg" xmlns:xlink="http://www.w3.org/1999/xlink" x="0px" y="0px"
	 width="300px" height="200px" viewBox="0 0 300 200" style="enable-background:new 0 0 300 200;" xml:space="preserve">
<style type="text/css">
	.st0{fill:#253645;}
	.st1{fill:#3A4856;}
</style>
<rect class="st0" width="300" height="200"/>
<g>
	<polygon class="st1" points="149.9,96.6 118.6,65.3 115.4,68.4 146.9,99.8 115.4,131.1 118.6,134.2 149.9,103 181.4,134.2 
		184.6,131.1 153.1,99.8 184.6,68.4 181.4,65.3 	"/>
	<polygon class="st1" points="136.8,99.8 115.7,78.7 112.5,81.9 130.4,99.8 112.5,117.6 115.7,120.8 	"/>
	<polygon class="st1" points="163.2,99.8 184.3,120.8 187.4,117.6 169.5,99.8 187.4,81.9 184.3,78.7 	"/>
	<polygon class="st1" points="285.4,200 185.9,99.8 284.8,0 278.6,0 179.5,99.8 279.1,200 	"/>
	<polygon class="st1" points="300,200 300,197.4 202.1,99.8 300,2.1 300,0 294.8,0 195.8,99.8 295.3,200 	"/>
	<polygon class="st1" points="300,179 218.5,99.8 300,20.5 300,14.1 212.2,99.8 300,185.3 	"/>
	<polygon class="st1" points="300,162.8 234.7,99.8 300,36.9 300,32.7 300,30.5 228.4,99.8 300,169.1 300,166.9 	"/>
	<polygon class="st1" points="300,146.5 251.1,99.8 300,53.1 300,46.3 244,98.8 300,152.6 	"/>
	<polygon class="st1" points="300,130.2 267.4,99.8 300,69.3 300,63.1 261,99.8 300,136.5 	"/>
	<polygon class="st1" points="300,113.9 283.7,99.8 300,85.6 300,79.3 277.4,99.8 300,120.2 	"/>
	<polygon class="st1" points="171,65.4 167.8,62.4 149.9,80.3 132,62.4 128.8,65.4 149.9,86.5 	"/>
	<polygon class="st1" points="245.7,0 186.3,60.3 189.5,63.4 252.2,0 	"/>
	<polygon class="st1" points="262.2,0 189.3,73.7 192.5,76.8 268.5,0 	"/>
	<polygon class="st1" points="229.4,0 172.8,57.4 176,60.5 235.7,0 	"/>
	<polygon class="st1" points="128.8,134 132,137.2 149.9,119.3 167.8,137.2 171,134 149.9,113 	"/>
	<polygon class="st1" points="14.5,200 20.9,200 120.4,99.8 21.4,0 15.1,0 114.1,99.8 	"/>
	<polygon class="st1" points="5.2,0 5.2,0 0,0 0,2.2 97.8,99.8 0,197.3 0,200 4.6,200 104.2,99.8 	"/>
	<polygon class="st1" points="0,14.2 0,20.5 81.5,99.8 0,179 0,185.3 87.8,99.8 	"/>
	<polygon class="st1" points="0,30.6 0,32.7 0,36.9 65.2,99.8 0,162.7 0,166.9 0,169.1 71.4,99.8 	"/>
	<polygon class="st1" points="0,46.8 0,53.2 48.8,99.8 0,146.4 0,152.7 55.2,99.8 	"/>
	<polygon class="st1" points="0,63.2 0,69.3 32.6,99.8 0,130.2 0,136.5 38.8,99.8 	"/>
	<polygon class="st1" points="0,79.3 0,85.7 16.2,99.8 0,113.8 0,120.2 22.6,99.8 	"/>
	<polygon class="st1" points="213.1,0 150.1,64 86.9,0 82.8,0 80.5,0 150.1,70.3 219.4,0 217.2,0 	"/>
	<polygon class="st1" points="196.9,0 150.1,47.6 103.2,0 96.9,0 150.1,53.9 203.2,0 	"/>
	<polygon class="st1" points="180.7,0 150.1,31.5 119.5,0 113.2,0 150.1,37.8 186.8,0 	"/>
	<polygon class="st1" points="164.3,0 150.1,15.2 135.8,0 129.5,0 150.1,21.4 170.6,0 	"/>
	<polygon class="st1" points="145.8,0 150.1,5.2 154.3,0 	"/>
	<polygon class="st1" points="86.5,200 150.1,135.6 213.6,200 216.7,200 220.8,200 150.1,129.2 79.2,200 83.2,200 	"/>
	<polygon class="st1" points="102.9,200 150.1,151.9 197.3,200 203.5,200 150.1,145.6 96.5,200 	"/>
	<polygon class="st1" points="119.2,200 150.1,168.2 181,200 187.3,200 150.1,162 112.8,200 	"/>
	<polygon class="st1" points="135.5,200 150.1,184.5 164.8,200 171,200 150.1,178.2 129.2,200 	"/>
	<polygon class="st1" points="154.7,200 150.1,194.4 145.4,200 	"/>
	<polygon class="st1" points="47.8,0 110.5,63.4 113.5,60.3 54.1,0 	"/>
	<polygon class="st1" points="31.4,0 107.5,76.8 110.6,73.7 37.8,0 	"/>
	<polygon class="st1" points="64.2,0 123.9,60.5 127.1,57.4 70.5,0 	"/>
	<polygon class="st1" points="252.6,200 189.5,136 186.3,139.2 246.5,200 	"/>
	<polygon class="st1" points="269,200 192.5,122.6 189.3,125.8 262.7,200 	"/>
	<polygon class="st1" points="236.3,200 176,139 172.8,142 230,200 	"/>
	<polygon class="st1" points="53.5,200 113.5,139.2 110.5,136 47.3,200 	"/>
	<polygon class="st1" points="37.2,200 110.6,125.8 107.5,122.6 30.9,200 	"/>
	<polygon class="st1" points="70,200 127.1,142 123.9,139 63.6,200 	"/>
</g>
</svg>
